# xmcd
#
# Track frame offsets:
#  183
#  15733
#  27208
#  43995
#  61233
#  75858
#  90258
#  100683
#  120158
#  132508
#  149308
#  168470
#
# Disc length: 2437 seconds
#
# Revision: 5
# Processed by: cddbd v1.5.2PL0 Copyright (c) Steve Scherf et al.
# Submitted via: Collectorz.com_Music_Collector 6.11
#
DISCID=8b09830c
DTITLE=John Mayall - The Blues Alone
DYEAR=1967
DGENRE=Blues
TTITLE0=Brand New Start
TTITLE1=Please Don`t Tell
TTITLE2=Down The Line
TTITLE3=Sonny Boy Blow
TTITLE4=Marsha`s Mood
TTITLE5=No More Tears
TTITLE6=Catch That Train
TTITLE7=Cancelling Out
TTITLE8=Harp Man
TTITLE9=Brown Sugar
TTITLE10=Broken Wings
TTITLE11=Don`t Kick Me
EXTD=
EXTT0=
EXTT1=
EXTT2=
EXTT3=
EXTT4=
EXTT5=
EXTT6=
EXTT7=
EXTT8=
EXTT9=
EXTT10=
EXTT11=
PLAYORDER=
